<svg version="1.1" viewBox="0.0 0.0 75.59055118110236 75.59055118110236" fill="none" stroke="none" stroke-linecap="square" stroke-miterlimit="10" xmlns:xlink="http://www.w3.org/1999/xlink" xmlns="http://www.w3.org/2000/svg"><clipPath id="p.0"><path d="m0 0l75.59055 0l0 75.59055l-75.59055 0l0 -75.59055z" clip-rule="nonzero"/></clipPath><g clip-path="url(#p.0)"><path fill="#000000" fill-opacity="0.0" d="m0 0l75.59055 0l0 75.59055l-75.59055 0z" fill-rule="evenodd"/><path fill="#ffffff" d="m25.19685 37.795277l0 0c0 -6.95792 5.6405067 -12.598427 12.598427 -12.598427l0 0c3.3413086 0 6.5457687 1.3273315 8.908432 3.6899948c2.3626633 2.3626614 3.689991 5.5671196 3.689991 8.908432l0 0c0 6.9579163 -5.6405067 12.598423 -12.598423 12.598423l0 0c-6.95792 0 -12.598427 -5.6405067 -12.598427 -12.598423z" fill-rule="evenodd"/><path stroke="#000000" stroke-width="3.0" stroke-linejoin="round" stroke-linecap="butt" d="m25.19685 37.795277l0 0c0 -6.95792 5.6405067 -12.598427 12.598427 -12.598427l0 0c3.3413086 0 6.5457687 1.3273315 8.908432 3.6899948c2.3626633 2.3626614 3.689991 5.5671196 3.689991 8.908432l0 0c0 6.9579163 -5.6405067 12.598423 -12.598423 12.598423l0 0c-6.95792 0 -12.598427 -5.6405067 -12.598427 -12.598423z" fill-rule="evenodd"/><path fill="#000000" fill-opacity="0.0" d="m69.286385 6.0836945l-22.582676 22.80315" fill-rule="evenodd"/><path stroke="#000000" stroke-width="3.0" stroke-linejoin="round" stroke-linecap="butt" d="m69.286385 6.0836945l-22.582676 22.80315" fill-rule="evenodd"/><path fill="#000000" fill-opacity="0.0" d="m75.59055 12.598425l-6.299217 -6.2992125" fill-rule="evenodd"/><path stroke="#000000" stroke-width="3.0" stroke-linejoin="round" stroke-linecap="butt" d="m75.59055 12.598425l-6.299217 -6.2992125" fill-rule="evenodd"/></g></svg>