<svg version="1.1" viewBox="0.0 0.0 75.59055118110236 75.59055118110236" fill="none" stroke="none" stroke-linecap="square" stroke-miterlimit="10" xmlns:xlink="http://www.w3.org/1999/xlink" xmlns="http://www.w3.org/2000/svg"><clipPath id="p.0"><path d="m0 0l75.59055 0l0 75.59055l-75.59055 0l0 -75.59055z" clip-rule="nonzero"/></clipPath><g clip-path="url(#p.0)"><path fill="#000000" fill-opacity="0.0" d="m0 0l75.59055 0l0 75.59055l-75.59055 0z" fill-rule="evenodd"/><path fill="#000000" fill-opacity="0.0" d="m44.09449 69.291336l0 0c-11.274319 0 -21.688745 -6.0262604 -27.306929 -15.801041c-5.618184 -9.774776 -5.583128 -21.807018 0.091918945 -31.548893c5.675045 -9.741875 16.12441 -15.707352 27.398535 -15.641655l-0.18352509 31.49553z" fill-rule="evenodd"/><path fill="#000000" fill-opacity="0.0" d="m44.09449 69.291336l0 0c-11.274319 0 -21.688745 -6.0262604 -27.306929 -15.801041c-5.618184 -9.774776 -5.583128 -21.807018 0.091918945 -31.548893c5.675045 -9.741875 16.12441 -15.707352 27.398535 -15.641655" fill-rule="evenodd"/><path stroke="#000000" stroke-width="3.0" stroke-linejoin="round" stroke-linecap="butt" d="m44.09449 69.291336l0 0c-11.274319 0 -21.688745 -6.0262604 -27.306929 -15.801041c-5.618184 -9.774776 -5.583128 -21.807018 0.091918945 -31.548893c5.675045 -9.741875 16.12441 -15.707352 27.398535 -15.641655" fill-rule="evenodd"/><path fill="#000000" fill-opacity="0.0" d="m12.598425 6.2992125l0 62.992123" fill-rule="evenodd"/><path stroke="#000000" stroke-width="3.0" stroke-linejoin="round" stroke-linecap="butt" d="m12.598425 6.2992125l0 62.992123" fill-rule="evenodd"/><path fill="#000000" fill-opacity="0.0" d="m12.598425 37.795277l-12.598425 0" fill-rule="evenodd"/><path stroke="#000000" stroke-width="3.0" stroke-linejoin="round" stroke-linecap="butt" d="m12.598425 37.795277l-12.598425 0" fill-rule="evenodd"/></g></svg>