<svg version="1.1" viewBox="0.0 0.0 75.59055118110236 75.59055118110236" fill="none" stroke="none" stroke-linecap="square" stroke-miterlimit="10" xmlns:xlink="http://www.w3.org/1999/xlink" xmlns="http://www.w3.org/2000/svg"><clipPath id="p.0"><path d="m0 0l75.59055 0l0 75.59055l-75.59055 0l0 -75.59055z" clip-rule="nonzero"/></clipPath><g clip-path="url(#p.0)"><path fill="#000000" fill-opacity="0.0" d="m0 0l75.59055 0l0 75.59055l-75.59055 0z" fill-rule="evenodd"/><path fill="#000000" fill-opacity="0.0" d="m71.75477 37.74803l-6.2992096 0.09448624" fill-rule="evenodd"/><path stroke="#000000" stroke-width="3.0" stroke-linejoin="round" stroke-linecap="butt" d="m71.75477 37.74803l-6.2992096 0.09448624" fill-rule="evenodd"/><path fill="#000000" fill-opacity="0.0" d="m64.396324 25.929134l-26.61417 11.968502" fill-rule="evenodd"/><path stroke="#000000" stroke-width="3.0" stroke-linejoin="round" stroke-linecap="butt" d="m64.396324 25.929134l-26.61417 11.968502" fill-rule="evenodd"/><g mask="url(#mask-p.1)"><use xlink:href="#p.1" transform="matrix(1.0 0.0 0.0 -1.0 0.0 74.59055118110236)"/></g><defs><mask id="mask-p.1" maskUnits="userSpaceOnUse" x="7.809711286089239" y="31.29527559055118" width="15.094488188976378" height="21.11023622047244"><linearGradient gradientUnits="userSpaceOnUse" id="gradient-p.1" x1="13.809711286129792" y1="39.29526438853464" x2="13.809701392427817" y2="42.02833872384814"><stop offset="0%" stop-color="#ffffff" stop-opacity="1.0"/><stop offset="100%" stop-color="#ffffff" stop-opacity="0.0"/></linearGradient><rect fill="url(#gradient-p.1)" x="7.809711286089239" y="31.29527559055118" width="15.094488188976378" height="21.11023622047244"/></mask></defs><g id="p.1"><g filter="url(#shadowFilter-p.2)"><use xlink:href="#p.2" transform="matrix(1.0 0.0 0.0 1.0 0.0 2.0)"/></g><defs><filter id="shadowFilter-p.2" filterUnits="userSpaceOnUse"><feGaussianBlur in="SourceAlpha" stdDeviation="2.0" result="blur"/><feComponentTransfer in="blur" color-interpolation-filters="sRGB"><feFuncR type="linear" slope="0" intercept="0.0"/><feFuncG type="linear" slope="0" intercept="0.0"/><feFuncB type="linear" slope="0" intercept="0.0"/><feFuncA type="linear" slope="0.5" intercept="0"/></feComponentTransfer></filter></defs><g id="p.2"><path fill="#000000" fill-opacity="0.0" d="m15.4042 27.68504l-0.094488144 6.110237" fill-rule="evenodd"/><path stroke="#000000" stroke-width="3.0" stroke-linejoin="round" stroke-linecap="butt" d="m15.4042 27.68504l-0.094488144 6.110237" fill-rule="evenodd"/></g></g><path fill="#000000" fill-opacity="0.0" d="m3.3569553 37.795277l0 0c0 -6.6274185 5.3725824 -12.000002 12.0 -12.000002l0 0c3.1825972 0 6.234845 1.2642822 8.485282 3.514719c2.2504349 2.2504368 3.514717 5.302685 3.514717 8.485283l0 0c0 6.6274147 -5.3725815 12.0 -11.999999 12.0l0 0c-6.6274176 0 -12.0 -5.3725853 -12.0 -12.0z" fill-rule="evenodd"/><path stroke="#000000" stroke-width="1.0" stroke-linejoin="round" stroke-linecap="butt" d="m3.3569553 37.795277l0 0c0 -6.6274185 5.3725824 -12.000002 12.0 -12.000002l0 0c3.1825972 0 6.234845 1.2642822 8.485282 3.514719c2.2504349 2.2504368 3.514717 5.302685 3.514717 8.485283l0 0c0 6.6274147 -5.3725815 12.0 -11.999999 12.0l0 0c-6.6274176 0 -12.0 -5.3725853 -12.0 -12.0z" fill-rule="evenodd"/><path fill="#000000" d="m11.309711 37.795277l0 0c0 -2.2091408 1.7908611 -4.0 4.0 -4.0l0 0c1.0608654 0 2.0782814 0.42142487 2.8284264 1.1715736c0.75014687 0.75014496 1.1715736 1.767559 1.1715736 2.8284264l0 0c0 2.209137 -1.7908611 4.0 -4.0 4.0l0 0c-2.2091389 0 -4.0 -1.790863 -4.0 -4.0z" fill-rule="evenodd"/><path stroke="#000000" stroke-width="1.0" stroke-linejoin="round" stroke-linecap="butt" d="m11.309711 37.795277l0 0c0 -2.2091408 1.7908611 -4.0 4.0 -4.0l0 0c1.0608654 0 2.0782814 0.42142487 2.8284264 1.1715736c0.75014687 0.75014496 1.1715736 1.767559 1.1715736 2.8284264l0 0c0 2.209137 -1.7908611 4.0 -4.0 4.0l0 0c-2.2091389 0 -4.0 -1.790863 -4.0 -4.0z" fill-rule="evenodd"/><path fill="#000000" fill-opacity="0.0" d="m22.301838 37.795277l-2.9921265 0" fill-rule="evenodd"/><path stroke="#000000" stroke-width="3.0" stroke-linejoin="round" stroke-linecap="butt" d="m22.301838 37.795277l-2.9921265 0" fill-rule="evenodd"/><path fill="#000000" fill-opacity="0.0" d="m37.79414 37.74803l-6.2992134 0.09448624" fill-rule="evenodd"/><path stroke="#000000" stroke-width="3.0" stroke-linejoin="round" stroke-linecap="butt" d="m37.79414 37.74803l-6.2992134 0.09448624" fill-rule="evenodd"/><path fill="#000000" fill-opacity="0.0" d="m0.0131233595 17.89239l75.59055 0l0 38.614174l-75.59055 0z" fill-rule="evenodd"/><path stroke="#000000" stroke-width="1.0" stroke-linejoin="round" stroke-linecap="butt" d="m0.0131233595 17.89239l75.59055 0l0 38.614174l-75.59055 0z" fill-rule="evenodd"/></g></svg>