<svg version="1.1" viewBox="0.0 0.0 75.59055118110236 75.59055118110236" fill="none" stroke="none" stroke-linecap="square" stroke-miterlimit="10" xmlns:xlink="http://www.w3.org/1999/xlink" xmlns="http://www.w3.org/2000/svg"><clipPath id="p.0"><path d="m0 0l75.59055 0l0 75.59055l-75.59055 0l0 -75.59055z" clip-rule="nonzero"/></clipPath><g clip-path="url(#p.0)"><path fill="#000000" fill-opacity="0.0" d="m0 0l75.59055 0l0 75.59055l-75.59055 0z" fill-rule="evenodd"/><path fill="#000000" fill-opacity="0.0" d="m44.45669 69.291336l0 0c-11.144913 0 -21.439766 -6.026531 -26.993248 -15.801655c-5.553481 -9.775127 -5.518423 -21.807673 0.09192085 -31.54951c5.610346 -9.7418375 15.940134 -15.706874 27.084856 -15.640412l-0.1835289 31.495518z" fill-rule="evenodd"/><path fill="#000000" fill-opacity="0.0" d="m44.45669 69.291336l0 0c-11.144913 0 -21.439766 -6.026531 -26.993248 -15.801655c-5.553481 -9.775127 -5.518423 -21.807673 0.09192085 -31.54951c5.610346 -9.7418375 15.940134 -15.706874 27.084856 -15.640412" fill-rule="evenodd"/><path stroke="#000000" stroke-width="3.0" stroke-linejoin="round" stroke-linecap="butt" d="m44.45669 69.291336l0 0c-11.144913 0 -21.439766 -6.026531 -26.993248 -15.801655c-5.553481 -9.775127 -5.518423 -21.807673 0.09192085 -31.54951c5.610346 -9.7418375 15.940134 -15.706874 27.084856 -15.640412" fill-rule="evenodd"/><path fill="#000000" d="m-7.104987E-4 37.623318l0 0.34645844l12.850393 0l0 -0.34645844z" fill-rule="evenodd"/><path stroke="#000000" stroke-width="3.0" stroke-linejoin="round" stroke-linecap="butt" d="m-7.104987E-4 37.623318l0 0.34645844l12.850393 0l0 -0.34645844z" fill-rule="evenodd"/><path fill="#000000" d="m12.849683 68.78867l0.34645748 0l0 -61.984253l-0.34645748 0z" fill-rule="evenodd"/><path stroke="#000000" stroke-width="3.0" stroke-linejoin="round" stroke-linecap="butt" d="m12.849683 68.78867l0.34645748 0l0 -61.984253l-0.34645748 0z" fill-rule="evenodd"/></g></svg>