<svg version="1.1" viewBox="0.0 0.0 75.59055118110236 75.59055118110236" fill="none" stroke="none" stroke-linecap="square" stroke-miterlimit="10" xmlns:xlink="http://www.w3.org/1999/xlink" xmlns="http://www.w3.org/2000/svg"><clipPath id="p.0"><path d="m0 0l75.59055 0l0 75.59055l-75.59055 0l0 -75.59055z" clip-rule="nonzero"/></clipPath><g clip-path="url(#p.0)"><path fill="#000000" fill-opacity="0.0" d="m0 0l75.59055 0l0 75.59055l-75.59055 0z" fill-rule="evenodd"/><path fill="#ffffff" d="m0.0131233595 17.89239l75.59055 0l0 38.614174l-75.59055 0z" fill-rule="evenodd"/><path stroke="#000000" stroke-width="1.0" stroke-linejoin="round" stroke-linecap="butt" d="m0.0131233595 17.89239l75.59055 0l0 38.614174l-75.59055 0z" fill-rule="evenodd"/><path fill="#000000" fill-opacity="0.0" d="m3.3569553 37.795277l0 0c0 -6.6274185 5.3725824 -12.000002 12.0 -12.000002l0 0c3.1825972 0 6.234845 1.2642822 8.485282 3.514719c2.2504349 2.2504368 3.514717 5.302685 3.514717 8.485283l0 0c0 6.6274147 -5.3725815 12.0 -11.999999 12.0l0 0c-6.6274176 0 -12.0 -5.3725853 -12.0 -12.0z" fill-rule="evenodd"/><path stroke="#000000" stroke-width="1.0" stroke-linejoin="round" stroke-linecap="butt" d="m3.3569553 37.795277l0 0c0 -6.6274185 5.3725824 -12.000002 12.0 -12.000002l0 0c3.1825972 0 6.234845 1.2642822 8.485282 3.514719c2.2504349 2.2504368 3.514717 5.302685 3.514717 8.485283l0 0c0 6.6274147 -5.3725815 12.0 -11.999999 12.0l0 0c-6.6274176 0 -12.0 -5.3725853 -12.0 -12.0z" fill-rule="evenodd"/><path fill="#000000" d="m11.309711 37.795277l0 0c0 -2.2091408 1.7908611 -4.0 4.0 -4.0l0 0c1.0608654 0 2.0782814 0.42142487 2.8284264 1.1715736c0.75014687 0.75014496 1.1715736 1.767559 1.1715736 2.8284264l0 0c0 2.209137 -1.7908611 4.0 -4.0 4.0l0 0c-2.2091389 0 -4.0 -1.790863 -4.0 -4.0z" fill-rule="evenodd"/><path stroke="#000000" stroke-width="1.0" stroke-linejoin="round" stroke-linecap="butt" d="m11.309711 37.795277l0 0c0 -2.2091408 1.7908611 -4.0 4.0 -4.0l0 0c1.0608654 0 2.0782814 0.42142487 2.8284264 1.1715736c0.75014687 0.75014496 1.1715736 1.767559 1.1715736 2.8284264l0 0c0 2.209137 -1.7908611 4.0 -4.0 4.0l0 0c-2.2091389 0 -4.0 -1.790863 -4.0 -4.0z" fill-rule="evenodd"/><path fill="#000000" d="m32.503227 37.623318l0 0.34645844l5.291336 0l0 -0.34645844z" fill-rule="evenodd"/><path stroke="#000000" stroke-width="3.0" stroke-linejoin="round" stroke-linecap="butt" d="m32.503227 37.623318l0 0.34645844l5.291336 0l0 -0.34645844z" fill-rule="evenodd"/><path fill="#000000" d="m71.53472 37.969776l0 -0.34645844l-5.291336 0l0 0.34645844z" fill-rule="evenodd"/><path stroke="#000000" stroke-width="3.0" stroke-linejoin="round" stroke-linecap="butt" d="m71.53472 37.969776l0 -0.34645844l-5.291336 0l0 0.34645844z" fill-rule="evenodd"/><path fill="#000000" d="m37.795258 37.448677l0.15747833 0.34645844l26.267715 -9.574804l-0.15747833 -0.34645653z" fill-rule="evenodd"/><path stroke="#000000" stroke-width="3.0" stroke-linejoin="round" stroke-linecap="butt" d="m37.795258 37.448677l0.15747833 0.34645844l26.267715 -9.574804l-0.15747833 -0.34645653z" fill-rule="evenodd"/><path fill="#000000" d="m15.529473 37.623318l0 0.34645844l5.291339 0l0 -0.34645844z" fill-rule="evenodd"/><path stroke="#000000" stroke-width="3.0" stroke-linejoin="round" stroke-linecap="butt" d="m15.529473 37.623318l0 0.34645844l5.291339 0l0 -0.34645844z" fill-rule="evenodd"/><path fill="#000000" d="m15.183017 37.796547l0.34645653 0l0 -9.070866l-0.34645653 0z" fill-rule="evenodd"/><path stroke="#000000" stroke-width="3.0" stroke-linejoin="round" stroke-linecap="butt" d="m15.183017 37.796547l0.34645653 0l0 -9.070866l-0.34645653 0z" fill-rule="evenodd"/></g></svg>