<svg version="1.1" viewBox="0.0 0.0 75.59055118110236 75.59055118110236" fill="none" stroke="none" stroke-linecap="square" stroke-miterlimit="10" xmlns:xlink="http://www.w3.org/1999/xlink" xmlns="http://www.w3.org/2000/svg"><clipPath id="p.0"><path d="m0 0l75.59055 0l0 75.59055l-75.59055 0l0 -75.59055z" clip-rule="nonzero"/></clipPath><g clip-path="url(#p.0)"><path fill="#000000" fill-opacity="0.0" d="m0 0l75.59055 0l0 75.59055l-75.59055 0z" fill-rule="evenodd"/><path fill="#000000" d="m37.621338 75.5787l0.34645462 0l0 -5.291336l-0.34645462 0z" fill-rule="evenodd"/><path stroke="#000000" stroke-width="3.0" stroke-linejoin="round" stroke-linecap="butt" d="m37.621338 75.5787l0.34645462 0l0 -5.291336l-0.34645462 0z" fill-rule="evenodd"/><path fill="#000000" d="m37.967793 0.001271391l-0.34645462 0l0 5.291339l0.34645462 0z" fill-rule="evenodd"/><path stroke="#000000" stroke-width="3.0" stroke-linejoin="round" stroke-linecap="butt" d="m37.967793 0.001271391l-0.34645462 0l0 5.291339l0.34645462 0z" fill-rule="evenodd"/><path fill="#000000" d="m37.622192 70.286354l0.34645844 -0.15748596l-22.519686 -61.795273l-0.34645653 0.15748024z" fill-rule="evenodd"/><path stroke="#000000" stroke-width="3.0" stroke-linejoin="round" stroke-linecap="butt" d="m37.622192 70.286354l0.34645844 -0.15748596l-22.519686 -61.795273l-0.34645653 0.15748024z" fill-rule="evenodd"/><path fill="#000000" d="m20.3237 21.744139l-10.582677 3.8740158l-5.2283463 -14.425198l10.582678 -3.8740158z" fill-rule="evenodd"/></g></svg>